<?xml version="1.0" encoding="UTF-8"?>
<svg xmlns="http://www.w3.org/2000/svg" viewBox="0 0 448 448" width="72" height="72" fill="#ffffff" aria-hidden="true" role="img">
<g>
    <path d="M408 84H72c-22.056 0-40 17.944-40 40v48.805C13.765 176.522 0 192.683 0 212v112c0 22.056 17.944 40 40 40h336c22.056 0 40-17.944 40-40v-48.805c18.235-3.717 32-19.878 32-39.195V124c0-22.056-17.944-40-40-40zM16 324V212c0-13.233 10.767-24 24-24h128.99H312v160H40C26.767 348 16 337.233 16 324zM400 324c0 13.233-10.767 24-24 24h-48V188h48c13.233 0 24 10.767 24 24v88z"/>
</g>
</svg>
